<svg width="25" height="26" viewBox="0 0 25 26" fill="none" xmlns="http://www.w3.org/2000/svg">
<path d="M18.8661 2.8028L19.1745 6.32004L22.6907 6.62856C22.9162 6.64834 23.125 6.75542 23.2728 6.92699L24.7825 8.68043C25.046 8.98649 25.0638 9.43386 24.8254 9.75991L23.1158 12.0986C22.9479 12.3283 22.6782 12.4611 22.3938 12.4542L13.2639 12.2323L13.0421 3.09977C13.0352 2.81531 13.168 2.54551 13.3976 2.37756L15.7356 0.667451C16.0616 0.429032 16.5088 0.446846 16.8148 0.710436L18.5677 2.22056C18.7392 2.36832 18.8463 2.57724 18.8661 2.8028Z" fill="url(#paint0_linear_1528_21001)"/>
<path d="M6.12676 23.1972L5.81837 19.68L2.30215 19.3714C2.07665 19.3517 1.86779 19.2446 1.72007 19.073L0.210377 17.3196C-0.0531381 17.0135 -0.0709487 16.5661 0.167403 16.2401L1.87703 13.9014C2.04493 13.6717 2.31466 13.5389 2.59904 13.5458L11.7289 13.7677L11.9508 22.9002C11.9577 23.1847 11.8248 23.4545 11.5952 23.6224L9.25723 25.3326C8.93128 25.571 8.48403 25.5532 8.17806 25.2896L6.42512 23.7794C6.2536 23.6317 6.14654 23.4228 6.12676 23.1972Z" fill="url(#paint1_linear_1528_21001)"/>
<path d="M22.6978 19.3715L19.1816 19.6799L18.8732 23.1972C18.8534 23.4227 18.7463 23.6316 18.5748 23.7794L16.8219 25.2895C16.5159 25.5531 16.0687 25.5709 15.7427 25.3325L13.4047 23.6224C13.1751 23.4544 13.0423 23.1846 13.0492 22.9002L13.271 13.7677L22.401 13.5458C22.6853 13.5389 22.9551 13.6718 23.123 13.9014L24.8326 16.2401C25.0709 16.5661 25.0531 17.0135 24.7896 17.3196L23.2799 19.073C23.1322 19.2446 22.9233 19.3517 22.6978 19.3715Z" fill="url(#paint2_linear_1528_21001)"/>
<path d="M2.30922 6.62855L5.82547 6.32006L6.13389 2.80285C6.15367 2.57729 6.26073 2.36837 6.43224 2.22061L8.18519 0.710485C8.49116 0.446895 8.93841 0.429081 9.26437 0.6675L11.6024 2.37761C11.832 2.54556 11.9648 2.81536 11.9579 3.09982L11.736 12.2323L2.6061 12.4542C2.32173 12.4611 2.052 12.3282 1.8841 12.0986L0.174473 9.7599C-0.0638787 9.43386 -0.0460696 8.98648 0.217446 8.68042L1.72714 6.92698C1.87486 6.75542 2.08372 6.64833 2.30922 6.62855Z" fill="url(#paint3_linear_1528_21001)"/>
<defs>
<linearGradient id="paint0_linear_1528_21001" x1="12.5616" y1="0.499996" x2="12.5616" y2="29.4062" gradientUnits="userSpaceOnUse">
<stop stop-color="#A8FE3B"/>
<stop offset="1" stop-color="#6BB310"/>
</linearGradient>
<linearGradient id="paint1_linear_1528_21001" x1="12.5616" y1="0.499996" x2="12.5616" y2="29.4062" gradientUnits="userSpaceOnUse">
<stop stop-color="#A8FE3B"/>
<stop offset="1" stop-color="#6BB310"/>
</linearGradient>
<linearGradient id="paint2_linear_1528_21001" x1="12.5616" y1="0.499996" x2="12.5616" y2="29.4062" gradientUnits="userSpaceOnUse">
<stop stop-color="#A8FE3B"/>
<stop offset="1" stop-color="#6BB310"/>
</linearGradient>
<linearGradient id="paint3_linear_1528_21001" x1="12.5616" y1="0.499996" x2="12.5616" y2="29.4062" gradientUnits="userSpaceOnUse">
<stop stop-color="#A8FE3B"/>
<stop offset="1" stop-color="#6BB310"/>
</linearGradient>
</defs>
</svg>
