<svg width="287" height="58" viewBox="0 0 287 58" fill="none" xmlns="http://www.w3.org/2000/svg">
<path d="M36.2228 14.4214L36.815 21.1745L43.5661 21.7668C43.9991 21.8048 44.4001 22.0104 44.6837 22.3398L47.5823 25.7064C48.0883 26.2941 48.1225 27.153 47.6648 27.779L44.3823 32.2693C44.06 32.7102 43.5421 32.9653 42.9961 32.9521L25.4667 32.526L25.0408 14.9916C25.0275 14.4454 25.2825 13.9274 25.7234 13.6049L30.2123 10.3215C30.8382 9.86374 31.6969 9.89794 32.2844 10.404L35.65 13.3035C35.9793 13.5872 36.1849 13.9883 36.2228 14.4214Z" fill="url(#paint0_linear_1528_21043)"/>
<path d="M11.7634 53.5786L11.1713 46.8255L4.42012 46.2332C3.98717 46.1952 3.58616 45.9896 3.30254 45.6602L0.403924 42.2936C-0.102025 41.7059 -0.136222 40.847 0.321413 40.221L3.60389 35.7308C3.92627 35.2898 4.44415 35.0347 4.99015 35.0479L22.5196 35.474L22.9455 53.0084C22.9587 53.5546 22.7037 54.0726 22.2628 54.3951L17.7739 57.6785C17.1481 58.1363 16.2893 58.1021 15.7019 57.596L12.3362 54.6965C12.0069 54.4128 11.8014 54.0117 11.7634 53.5786Z" fill="url(#paint1_linear_1528_21043)"/>
<path d="M43.5799 46.2332L36.8287 46.8255L36.2365 53.5785C36.1985 54.0116 35.993 54.4127 35.6637 54.6964L32.298 57.5959C31.7105 58.102 30.8518 58.1362 30.226 57.6784L25.737 54.395C25.2962 54.0725 25.0412 53.5545 25.0544 53.0083L25.4804 35.474L43.0099 35.048C43.5559 35.0347 44.0737 35.2898 44.3961 35.7308L47.6786 40.221C48.1362 40.847 48.102 41.706 47.5961 42.2936L44.6975 45.6602C44.4138 45.9896 44.0128 46.1952 43.5799 46.2332Z" fill="url(#paint2_linear_1528_21043)"/>
<path d="M4.4337 21.7668L11.1849 21.1745L11.7771 14.4215C11.815 13.9884 12.0206 13.5873 12.3499 13.3036L15.7156 10.4041C16.303 9.89804 17.1617 9.86383 17.7876 10.3216L22.2765 13.605C22.7174 13.9275 22.9724 14.4455 22.9591 14.9917L22.5332 32.526L5.00372 32.952C4.45772 32.9653 3.93985 32.7102 3.61747 32.2692L0.334988 27.779C-0.122647 27.153 -0.0884537 26.294 0.417496 25.7064L3.31611 22.3398C3.59974 22.0104 4.00075 21.8048 4.4337 21.7668Z" fill="url(#paint3_linear_1528_21043)"/>
<path d="M89.68 29.52C89.68 29.568 89.632 29.616 89.584 29.616H87.232V25.008H89.584C89.632 25.008 89.68 25.056 89.68 25.104V29.52ZM94.672 48C97.984 48 99.664 46.752 99.664 44.208V35.184C99.664 33.696 98.848 32.88 97.168 32.64C98.8 32.448 99.616 31.632 99.616 30.144V21.216C99.616 18.624 97.984 17.328 94.672 17.328H77.248V48H94.672ZM89.68 40.272C89.68 40.32 89.632 40.368 89.584 40.368H87.232V35.712H89.584C89.632 35.712 89.68 35.76 89.68 35.808V40.272ZM114.428 40.272C114.428 40.32 114.38 40.368 114.332 40.368H112.076C112.028 40.368 111.98 40.32 111.98 40.272V25.104C111.98 25.056 112.028 25.008 112.076 25.008H114.332C114.38 25.008 114.428 25.056 114.428 25.104V40.272ZM119.42 48C122.732 48 124.412 46.752 124.412 44.208V21.216C124.412 18.624 122.732 17.328 119.42 17.328H106.988C103.676 17.328 101.996 18.624 101.996 21.216V44.208C101.996 46.752 103.676 48 106.988 48H119.42ZM174.075 57.552V49.92H149.307C149.259 49.92 149.211 49.872 149.211 49.824V35.184C149.211 33.696 148.395 32.88 146.715 32.64C148.347 32.448 149.163 31.632 149.163 30.144V21.216C149.163 18.624 147.531 17.328 144.219 17.328H126.795V48H136.779V35.712H139.131C139.179 35.712 139.227 35.76 139.227 35.808V53.76C139.227 56.304 140.907 57.552 144.219 57.552H174.075ZM139.227 29.52C139.227 29.568 139.179 29.616 139.131 29.616H136.779V25.008H139.131C139.179 25.008 139.227 25.056 139.227 25.104V29.52ZM174.075 48V21.216C174.075 18.624 172.395 17.328 169.083 17.328C165.819 17.328 163.323 18 161.643 19.296V17.328H151.659V48H161.643V25.104C161.643 25.056 161.691 25.008 161.739 25.008H163.995C164.043 25.008 164.091 25.056 164.091 25.104V48H174.075ZM211.377 57.552V49.92H186.513V17.328H176.529V57.552H211.377ZM206.385 48C209.697 48 211.377 46.752 211.377 44.208V17.328H201.393V40.272C201.393 40.32 201.345 40.368 201.297 40.368H199.041C198.993 40.368 198.945 40.32 198.945 40.272V17.328H188.961V44.208C188.961 46.752 190.641 48 193.953 48H206.385ZM231.17 48C234.482 48 236.162 46.752 236.162 44.208V33.12H226.178V40.272C226.178 40.32 226.13 40.368 226.082 40.368H223.826C223.778 40.368 223.73 40.32 223.73 40.272V25.104C223.73 25.056 223.778 25.008 223.826 25.008H226.082C226.13 25.008 226.178 25.056 226.178 25.104V30.288H236.162V21.216C236.162 18.624 234.482 17.328 231.17 17.328H218.738C215.426 17.328 213.746 18.624 213.746 21.216V44.208C213.746 46.752 215.426 48 218.738 48H231.17ZM261.969 48L254.817 32.112L261.681 17.328H251.169L248.193 25.152V17.328H238.545V48H248.193V39.792L251.457 48H261.969ZM280.449 57.552C283.761 57.552 285.441 56.304 285.441 53.76V17.328H275.457V40.368H273.105C273.057 40.368 273.009 40.32 273.009 40.272V17.328H263.025V44.208C263.025 46.752 264.705 48 268.017 48H275.457V49.824C275.457 49.872 275.409 49.92 275.361 49.92H238.545V57.552H280.449Z" fill="url(#paint4_linear_1528_21043)"/>
<defs>
<linearGradient id="paint0_linear_1528_21043" x1="24.1182" y1="9.99999" x2="24.1182" y2="65.5" gradientUnits="userSpaceOnUse">
<stop stop-color="#A8FE3B"/>
<stop offset="1" stop-color="#6BB310"/>
</linearGradient>
<linearGradient id="paint1_linear_1528_21043" x1="24.1182" y1="9.99999" x2="24.1182" y2="65.5" gradientUnits="userSpaceOnUse">
<stop stop-color="#A8FE3B"/>
<stop offset="1" stop-color="#6BB310"/>
</linearGradient>
<linearGradient id="paint2_linear_1528_21043" x1="24.1182" y1="9.99999" x2="24.1182" y2="65.5" gradientUnits="userSpaceOnUse">
<stop stop-color="#A8FE3B"/>
<stop offset="1" stop-color="#6BB310"/>
</linearGradient>
<linearGradient id="paint3_linear_1528_21043" x1="24.1182" y1="9.99999" x2="24.1182" y2="65.5" gradientUnits="userSpaceOnUse">
<stop stop-color="#A8FE3B"/>
<stop offset="1" stop-color="#6BB310"/>
</linearGradient>
<linearGradient id="paint4_linear_1528_21043" x1="182.02" y1="-8.24948e-06" x2="182.02" y2="67.0625" gradientUnits="userSpaceOnUse">
<stop stop-color="#A8FE3B"/>
<stop offset="1" stop-color="#6BB310"/>
</linearGradient>
</defs>
</svg>
