<svg xmlns="http://www.w3.org/2000/svg" version="1.1" xmlns:xlink="http://www.w3.org/1999/xlink" xmlns:svgjs="http://svgjs.dev/svgjs" width="1000" height="1000" viewBox="0 0 1000 1000"><g transform="matrix(1,0,0,1,-0.14221556886212738,-0.14221556886229791)"><svg viewBox="0 0 334 334" data-background-color="#ffffff" preserveAspectRatio="xMidYMid meet" height="1000" width="1000" xmlns="http://www.w3.org/2000/svg" xmlns:xlink="http://www.w3.org/1999/xlink"><g id="tight-bounds" transform="matrix(1,0,0,1,0.04749999999998522,0.04750000000001364)"><svg viewBox="0 0 333.90454557049503 333.90454557049503" height="333.90454557049503" width="333.90454557049503"><g><svg></svg></g><g><svg viewBox="0 0 333.90454557049503 333.90454557049503" height="333.90454557049503" width="333.90454557049503"><g><path d="M0 166.952c0-92.205 74.747-166.952 166.952-166.952 92.205 0 166.952 74.747 166.953 166.952 0 92.205-74.747 166.952-166.953 166.953-92.205 0-166.952-74.747-166.952-166.953zM166.952 331.431c90.839 0 164.479-73.64 164.479-164.479 0-90.839-73.64-164.479-164.479-164.479-90.839 0-164.479 73.64-164.479 164.479 0 90.839 73.64 164.479 164.479 164.479z" data-fill-palette-color="tertiary" fill="#00b3ff" stroke="transparent"></path><ellipse rx="160.27418187383762" ry="160.27418187383762" cx="166.95227278524752" cy="166.95227278524752" fill="#00b3ff" stroke="transparent" stroke-width="0" fill-opacity="1" data-fill-palette-color="tertiary"></ellipse></g><g transform="matrix(1,0,0,1,70.62399640695278,71.17305217166896)"><svg viewBox="0 0 192.65655275658946 191.55844122715712" height="191.55844122715712" width="192.65655275658946"><g><svg viewBox="0 0 192.65655275658946 191.55844122715712" height="191.55844122715712" width="192.65655275658946"><g><svg viewBox="0 0 213.1584412271571 211.94347221334368" height="191.55844122715712" width="192.65655275658946"><g transform="matrix(1,0,0,1,0,157.53853447938462)"><svg viewBox="0 0 213.1584412271571 54.404937733959066" height="54.404937733959066" width="213.1584412271571"><g id="textblocktransform"><svg viewBox="0 0 213.1584412271571 54.404937733959066" height="54.404937733959066" width="213.1584412271571" id="textblock"><g><svg viewBox="0 0 213.1584412271571 30.343137729891055" height="30.343137729891055" width="213.1584412271571"><g transform="matrix(1,0,0,1,0,0)"><svg width="213.1584412271571" viewBox="1.100000023841858 -35.5 253.57998657226562 36.099998474121094" height="30.343137729891055" data-palette-color="#1d4769"><path d="M32 0L26.1 0 22.95-9.45 9.9-9.45 6.85 0 1.1 0 13-34.9 20.1-34.9 32 0ZM21.55-14.3L16.55-29.7 16.3-29.7 11.25-14.3 21.55-14.3ZM37.4 0L37.4-34.9 52.85-34.9Q57.2-34.9 59.67-32.45 62.15-30 62.15-25.9L62.15-25.9Q62.15-23.95 61.6-22.58 61.05-21.2 60.2-20.33 59.35-19.45 58.25-19.03 57.15-18.6 56.1-18.5L56.1-18.5 56.1-18.2Q57.15-18.15 58.42-17.7 59.7-17.25 60.8-16.28 61.9-15.3 62.65-13.78 63.4-12.25 63.4-10.05L63.4-10.05Q63.4-7.95 62.72-6.1 62.05-4.25 60.85-2.9 59.65-1.55 58-0.78 56.35 0 54.4 0L54.4 0 37.4 0ZM43.05-15.45L43.05-4.85 52.75-4.85Q54.95-4.85 56.2-6 57.45-7.15 57.45-9.3L57.45-9.3 57.45-11Q57.45-13.15 56.2-14.3 54.95-15.45 52.75-15.45L52.75-15.45 43.05-15.45ZM43.05-30.05L43.05-20.15 51.8-20.15Q53.9-20.15 55.05-21.23 56.2-22.3 56.2-24.3L56.2-24.3 56.2-25.9Q56.2-27.9 55.05-28.98 53.9-30.05 51.8-30.05L51.8-30.05 43.05-30.05ZM76-14.1L76 0 70.35 0 70.35-34.9 85.4-34.9Q90.1-34.9 92.8-32.08 95.5-29.25 95.5-24.4L95.5-24.4Q95.5-20.65 93.77-18.18 92.05-15.7 88.7-14.7L88.7-14.7 96.25 0 89.95 0 82.95-14.1 76-14.1ZM76-18.85L85-18.85Q87.15-18.85 88.35-19.98 89.55-21.1 89.55-23.2L89.55-23.2 89.55-25.6Q89.55-27.7 88.35-28.83 87.15-29.95 85-29.95L85-29.95 76-29.95 76-18.85ZM116.79 0L101.59 0 101.59-4.6 106.34-4.6 106.34-30.3 101.59-30.3 101.59-34.9 116.79-34.9 116.79-30.3 111.99-30.3 111.99-4.6 116.79-4.6 116.79 0ZM134.34 0.6L134.34 0.6Q129.94 0.6 126.87-1 123.79-2.6 121.59-5.3L121.59-5.3 125.49-8.95Q127.34-6.7 129.57-5.55 131.79-4.4 134.64-4.4L134.64-4.4Q137.99-4.4 139.69-5.9 141.39-7.4 141.39-9.95L141.39-9.95Q141.39-12 140.19-13.2 138.99-14.4 135.94-15L135.94-15 132.84-15.55Q127.74-16.5 125.19-18.9 122.64-21.3 122.64-25.5L122.64-25.5Q122.64-27.8 123.52-29.68 124.39-31.55 125.97-32.83 127.54-34.1 129.79-34.8 132.04-35.5 134.84-35.5L134.84-35.5Q138.79-35.5 141.69-34.13 144.59-32.75 146.64-30.15L146.64-30.15 142.69-26.65Q141.34-28.4 139.39-29.45 137.44-30.5 134.54-30.5L134.54-30.5Q131.54-30.5 129.89-29.3 128.24-28.1 128.24-25.8L128.24-25.8Q128.24-23.6 129.59-22.53 130.94-21.45 133.79-20.9L133.79-20.9 136.89-20.25Q142.14-19.25 144.57-16.85 146.99-14.45 146.99-10.25L146.99-10.25Q146.99-7.8 146.14-5.8 145.29-3.8 143.67-2.38 142.04-0.95 139.69-0.18 137.34 0.6 134.34 0.6ZM175.24 0L175.24-15.2 159.44-15.2 159.44 0 153.79 0 153.79-34.9 159.44-34.9 159.44-20.2 175.24-20.2 175.24-34.9 180.89-34.9 180.89 0 175.24 0ZM217.19 0L211.28 0 208.13-9.45 195.09-9.45 192.03 0 186.28 0 198.19-34.9 205.28-34.9 217.19 0ZM206.74-14.3L201.74-29.7 201.49-29.7 196.44-14.3 206.74-14.3ZM249.28 0L249.28-26.7 249.03-26.7 246.28-21.05 238.63-7.1 230.98-21.05 228.23-26.7 227.98-26.7 227.98 0 222.58 0 222.58-34.9 229.28-34.9 238.63-17.15 238.93-17.15 248.28-34.9 254.68-34.9 254.68 0 249.28 0Z" opacity="1" transform="matrix(1,0,0,1,0,0)" fill="#1d4769" class="wordmark-text-0" data-fill-palette-color="quaternary" id="text-0"></path></svg></g></svg></g><g transform="matrix(1,0,0,1,0,37.506424312612815)"><svg viewBox="0 0 213.1584412271571 16.89851342134625" height="16.89851342134625" width="213.1584412271571"><g transform="matrix(1,0,0,1,0,0)"><svg width="213.1584412271571" viewBox="1.9000000953674316 -38.400001525878906 491.510009765625 38.96000289916992" height="16.89851342134625" data-palette-color="#1d4769"><path d="M21.92-37.38L21.92-37.38Q26.88-37.38 31.01-36.13L31.01-36.13Q32.81-35.57 34.03-34.89L34.03-34.89 33.47-28.37 31.86-28.37Q31.86-31.08 29.2-32.71L29.2-32.71Q26.37-34.45 21.41-34.45L21.41-34.45Q14.99-34.45 10.79-30.13L10.79-30.13Q6.62-25.78 6.62-19.26L6.62-19.26Q6.62-12.35 10.47-7.54L10.47-7.54Q13.09-4.3 17.09-3.03L17.09-3.03Q19.14-2.37 21.75-2.37 24.37-2.37 26.39-2.67 28.42-2.98 29.71-3.66L29.71-3.66Q32.25-5 32.25-8.2L32.25-8.2 33.86-8.2 34.2-1.9Q29.96 0.56 21.68 0.56L21.68 0.56Q12.55 0.56 7.1-4.74L7.1-4.74Q1.9-9.79 1.9-17.77L1.9-17.77Q1.9-26.61 8.06-32.18L8.06-32.18Q13.75-37.38 21.92-37.38ZM63.38 0L63.38-2.08 66.75-2.64 62.89-12.13 48.24-12.13 44.41-2.64 47.85-2.08 47.85 0 37.38 0 37.38-2.08 41.24-2.64 54.05-34.33 53.03-36.74 56.98-38.4 71.58-2.64 75.51-2.08 75.51 0 63.38 0ZM55.59-30.76L49.39-15.09 61.82-15.09 55.59-30.76ZM102.81-31.23L102.81-31.23Q103.47-29.54 103.47-27.39 103.47-25.24 102.8-23.49 102.12-21.73 100.85-20.46L100.85-20.46Q98.44-18.04 93.75-17.07L93.75-17.07 94.19-17.87 103.83-3.22 105.54-2.47 108.98-2.08 108.98 0 100.61 0 89.62-17.55 91.67-16.67 85.13-16.67 85.13-2.64 88.79-2.08 88.79 0 76.83 0 76.83-2.08 80.62-2.64 80.62-34.18 76.83-34.74 76.83-36.82 88.87-36.82Q100.56-36.82 102.81-31.23ZM89.11-33.86L85.13-33.86 85.13-19.31 88.75-19.31Q96.66-19.31 98.32-23.93L98.32-23.93Q98.83-25.32 98.83-26.94 98.83-28.56 98.36-29.86 97.9-31.15 96.8-32.03L96.8-32.03Q94.53-33.86 89.11-33.86L89.11-33.86ZM123.29 0L110.18 0 110.18-2.08 113.89-2.64 113.89-34.18 110.18-34.74 110.18-36.82 122.22-36.82Q132.62-36.82 135.5-31.2L135.5-31.2Q136.57-29.13 136.57-26.21 136.57-23.29 135.61-21.04 134.64-18.8 132.74-17.24L132.74-17.24Q128.81-13.96 121.41-13.96L121.41-13.96 118.48-13.96 118.48-2.64 123.29-2.08 123.29 0ZM121.63-33.86L118.48-33.86 118.48-16.55 122.09-16.55Q126.95-16.55 129.52-19.14L129.52-19.14Q131.79-21.48 131.79-25.46L131.79-25.46Q131.79-29.57 129.61-31.59L129.61-31.59Q127.2-33.86 121.63-33.86L121.63-33.86ZM157.64-15.09L156.91-17.65 147.92-17.65 147.92-2.93 161.52-2.93 163.28-7.25 165.14-7.25 164.33 0 139.62 0 139.62-2.08 143.33-2.64 143.33-34.18 139.62-34.74 139.62-36.82 163.26-36.82 163.82-29.57 161.67-29.57 160.35-33.86 147.92-33.86 147.92-20.58 156.91-20.58 157.64-23.17 159.38-23.17 159.38-15.09 157.64-15.09ZM170.04-36.82L201.15-36.82 201.73-28.98 199.54-28.98 198.29-33.86 187.87-33.86 187.87-2.64 193.24-2.08 193.24 0 177.98 0 177.98-2.08 183.3-2.64 183.3-33.86 172.92-33.86 171.61-28.98 169.46-28.98 170.04-36.82ZM243.02-37.38L243.02-37.38Q247.97-37.38 252.1-36.13L252.1-36.13Q253.91-35.57 255.13-34.89L255.13-34.89 254.57-28.37 252.95-28.37Q252.95-31.08 250.29-32.71L250.29-32.71Q247.46-34.45 242.5-34.45L242.5-34.45Q236.08-34.45 231.88-30.13L231.88-30.13Q227.71-25.78 227.71-19.26L227.71-19.26Q227.71-12.35 231.57-7.54L231.57-7.54Q234.18-4.3 238.18-3.03L238.18-3.03Q240.23-2.37 242.85-2.37 245.46-2.37 247.49-2.67 249.51-2.98 250.81-3.66L250.81-3.66Q253.34-5 253.34-8.2L253.34-8.2 254.96-8.2 255.3-1.9Q251.05 0.56 242.77 0.56L242.77 0.56Q233.64 0.56 228.2-4.74L228.2-4.74Q223-9.79 223-17.77L223-17.77Q223-26.61 229.15-32.18L229.15-32.18Q234.84-37.38 243.02-37.38ZM260.4-36.82L272.36-36.82 272.36-34.74 268.7-34.18 268.7-2.93 282.08-2.93 283.52-8.4 285.52-8.4 285.3 0 260.4 0 260.4-2.08 264.11-2.64 264.11-34.18 260.4-34.74 260.4-36.82ZM307.81-15.09L307.08-17.65 298.1-17.65 298.1-2.93 311.69-2.93 313.45-7.25 315.31-7.25 314.5 0 289.79 0 289.79-2.08 293.51-2.64 293.51-34.18 289.79-34.74 289.79-36.82 313.43-36.82 313.99-29.57 311.84-29.57 310.52-33.86 298.1-33.86 298.1-20.58 307.08-20.58 307.81-23.17 309.55-23.17 309.55-15.09 307.81-15.09ZM342.82 0L342.82-2.08 346.19-2.64 342.33-12.13 327.69-12.13 323.85-2.64 327.29-2.08 327.29 0 316.82 0 316.82-2.08 320.68-2.64 333.5-34.33 332.47-36.74 336.43-38.4 351.03-2.64 354.96-2.08 354.96 0 342.82 0ZM335.03-30.76L328.83-15.09 341.26-15.09 335.03-30.76ZM387.06 0L363.43-29.74 363.43-2.64 367.14-2.08 367.14 0 356.84 0 356.84-2.08 360.62-2.64 360.62-34.18 356.84-34.74 356.84-36.82 363.57-36.82 387.23-7.08 387.23-34.18 383.54-34.74 383.54-36.82 393.77-36.82 393.77-34.74 390.09-34.18 390.09 0 387.06 0ZM398.54-34.74L398.54-36.82 410.5-36.82 410.5-34.74 406.81-34.18 406.81-2.64 410.5-2.08 410.5 0 398.54 0 398.54-2.08 402.29-2.64 402.29-34.18 398.54-34.74ZM445.39 0L421.75-29.74 421.75-2.64 425.46-2.08 425.46 0 415.16 0 415.16-2.08 418.95-2.64 418.95-34.18 415.16-34.74 415.16-36.82 421.9-36.82 445.56-7.08 445.56-34.18 441.87-34.74 441.87-36.82 452.1-36.82 452.1-34.74 448.41-34.18 448.41 0 445.39 0ZM478.98-13.94L478.98-16.58 493.41-16.58 493.41-13.94 492.04-13.94Q491.31-13.94 490.93-13.71 490.55-13.48 490.55-12.84L490.55-12.84 490.55-2.29Q488.79-2.29 486.65-1.56L486.65-1.56 483.52-0.54Q480.03 0.56 475.99 0.56 471.95 0.56 468.35-0.89 464.75-2.34 462.21-4.86 459.67-7.37 458.29-10.77 456.91-14.16 456.91-17.59 456.91-21.02 457.63-23.63 458.35-26.25 459.64-28.39 460.94-30.54 462.73-32.21 464.53-33.89 466.67-35.03L466.67-35.03Q471.09-37.38 476.29-37.38L476.29-37.38Q484.33-37.38 489.04-34.89L489.04-34.89 488.48-28.86 486.87-28.86Q486.87-31.1 484.08-32.69L484.08-32.69Q481.01-34.45 476.17-34.45L476.17-34.45Q469.9-34.45 465.75-29.93L465.75-29.93Q461.69-25.54 461.69-19.26L461.69-19.26Q461.69-12.38 465.5-7.54L465.5-7.54Q469.6-2.37 476.56-2.37L476.56-2.37Q484.23-2.37 485.6-5.66L485.6-5.66Q486.01-6.69 486.01-7.89L486.01-7.89 486.01-12.84Q486.01-13.5 485.63-13.72 485.25-13.94 484.62-13.94L484.62-13.94 478.98-13.94Z" opacity="1" transform="matrix(1,0,0,1,0,0)" fill="#1d4769" class="slogan-text-1" data-fill-palette-color="quaternary" id="text-1"></path></svg></g></svg></g></svg></g></svg></g><g transform="matrix(1,0,0,1,30.917053326400733,0)"><svg viewBox="0 0 151.32433457435565 150.37524789666287" height="150.37524789666287" width="151.32433457435565"><g><svg xmlns="http://www.w3.org/2000/svg" xmlns:xlink="http://www.w3.org/1999/xlink" version="1.1" x="0" y="0" viewBox="5.035999774932861 5.1419997215271 86.25699615478516 85.71600341796875" enable-background="new 0 0 96 96.001" xml:space="preserve" height="150.37524789666287" width="151.32433457435565" class="icon-icon-0" data-fill-palette-color="quaternary" id="icon-0"><path d="M68.26 65.975c-2.347 0-4.328 1.075-4.328 2.347 0 1.272 1.981 2.347 4.328 2.347 2.346 0 4.327-1.074 4.327-2.347C72.587 67.05 70.605 65.975 68.26 65.975z" fill="#1d4769" data-fill-palette-color="quaternary"></path><path d="M28.077 34.423v-8.446c-1.488-0.49-2.623-0.986-3.338-1.329v7.895 31.453c0.502 0.267 1.656 0.839 3.338 1.421V34.423z" fill="#1d4769" data-fill-palette-color="quaternary"></path><path d="M29.234 56.939c5.622 1.71 14.312 2.678 24.484-1.976 14.256-6.523 23.54-2.283 26.407-0.555V44.316c-1.521-1.024-10.942-6.628-25.926 0.225-5.677 2.598-10.913 3.498-15.444 3.499-3.691 0-6.907-0.6-9.521-1.365V56.939z" fill="#1d4769" data-fill-palette-color="quaternary"></path><path d="M53.719 63.81c4.486-2.055 8.909-3.215 13.146-3.448l0.001 0.01c0.458-0.03 0.922-0.048 1.394-0.048 5.278 0 9.823 1.942 11.866 4.72v-9.254c-1.521-1.023-10.942-6.628-25.926 0.227-5.676 2.597-10.912 3.497-15.442 3.497-3.691 0-6.909-0.599-9.523-1.364v7.638C34.855 67.496 43.544 68.464 53.719 63.81z" fill="#1d4769" data-fill-palette-color="quaternary"></path><path d="M80.126 68.321c0-3.771-5.323-6.841-11.866-6.841-6.545 0-11.868 3.069-11.868 6.841 0 3.772 5.323 6.841 11.868 6.841C74.803 75.162 80.126 72.094 80.126 68.321zM68.26 71.825c-3.076 0-5.485-1.539-5.485-3.504 0-1.964 2.409-3.504 5.485-3.504 3.075 0 5.484 1.54 5.484 3.504C73.744 70.286 71.335 71.825 68.26 71.825z" fill="#1d4769" data-fill-palette-color="quaternary"></path><path d="M80.126 42.936V32.843c-1.521-1.023-10.942-6.629-25.926 0.226-5.676 2.596-10.912 3.496-15.442 3.496-3.691 0-6.909-0.599-9.523-1.364v10.267c5.621 1.709 14.308 2.677 24.484-1.978C67.975 36.967 77.259 41.207 80.126 42.936z" fill="#1d4769" data-fill-palette-color="quaternary"></path><path d="M29.234 33.992c5.622 1.709 14.312 2.678 24.484-1.976 14.256-6.521 23.54-2.282 26.407-0.555v-7.466c-1.521-1.023-10.943-6.627-25.926 0.227-10.479 4.793-19.54 3.68-24.966 2.111V33.992z" fill="#1d4769" data-fill-palette-color="quaternary"></path><rect x="15.126" y="62.388" width="8.457" height="1.157" fill="#1d4769" data-fill-palette-color="quaternary"></rect><rect x="15.126" y="56.973" width="8.457" height="1.157" fill="#1d4769" data-fill-palette-color="quaternary"></rect><rect x="15.126" y="51.558" width="8.457" height="1.157" fill="#1d4769" data-fill-palette-color="quaternary"></rect><rect x="15.126" y="46.144" width="8.457" height="1.157" fill="#1d4769" data-fill-palette-color="quaternary"></rect><rect x="15.126" y="40.729" width="8.457" height="1.157" fill="#1d4769" data-fill-palette-color="quaternary"></rect><rect x="15.126" y="35.313" width="8.457" height="1.157" fill="#1d4769" data-fill-palette-color="quaternary"></rect><rect x="15.126" y="29.899" width="8.457" height="1.157" fill="#1d4769" data-fill-palette-color="quaternary"></rect><rect x="15.126" y="24.485" width="8.457" height="1.157" fill="#1d4769" data-fill-palette-color="quaternary"></rect><circle cx="28.229" cy="88.491" r="2.4" fill="#1d4769" data-fill-palette-color="quaternary"></circle><polygon points="6.364,34.141 8.513,33.012 10.66,34.141 10.25,31.749 11.987,30.055 9.587,29.706 8.513,27.53 7.438,29.706   5.036,30.055 6.774,31.749 " fill="#1d4769" data-fill-palette-color="quaternary"></polygon><polygon points="26.757,11.258 28.292,10.452 29.825,11.258 29.532,9.55 30.774,8.34 29.059,8.091 28.292,6.536 27.524,8.091   25.81,8.34 27.05,9.55 " fill="#1d4769" data-fill-palette-color="quaternary"></polygon><polygon points="84.604,67.979 85.846,69.189 85.553,70.897 87.087,70.092 88.621,70.897 88.328,69.189 89.569,67.979   87.854,67.729 87.087,66.177 86.319,67.729 " fill="#1d4769" data-fill-palette-color="quaternary"></polygon><polygon points="87.087,13.73 86.094,16.787 82.88,16.787 85.479,18.677 84.487,21.731 87.087,19.843 89.687,21.732 88.694,18.677   91.293,16.787 88.079,16.787 " fill="#1d4769" data-fill-palette-color="quaternary"></polygon><circle cx="79.131" cy="7.509" r="2.4" fill="#1d4769" data-fill-palette-color="quaternary"></circle><circle cx="88.623" cy="48.986" r="1.9" fill="#1d4769" data-fill-palette-color="quaternary"></circle><path d="M14.958 19.641c1.371 0 2.486-1.115 2.486-2.485 0-1.371-1.115-2.486-2.486-2.486s-2.486 1.115-2.486 2.486C12.472 18.525 13.587 19.641 14.958 19.641z" fill="#1d4769" data-fill-palette-color="quaternary"></path><path d="M21.953 88.636c0.327 0.082 0.659 0.156 0.993 0.224l0.148-0.735c-0.323-0.064-0.643-0.137-0.958-0.217L21.953 88.636z" fill="#1d4769" data-fill-palette-color="quaternary"></path><path d="M6.521 68.852c0 0.329 0.008 0.659 0.024 0.985l0.749-0.035c-0.016-0.316-0.023-0.633-0.023-0.95 0-0.325 0.009-0.651 0.025-0.979l-0.75-0.037C6.529 68.176 6.521 68.515 6.521 68.852z" fill="#1d4769" data-fill-palette-color="quaternary"></path><path d="M7.858 73.607c-0.155-0.621-0.282-1.257-0.376-1.89l-0.742 0.11c0.098 0.657 0.229 1.317 0.392 1.962L7.858 73.607z" fill="#1d4769" data-fill-palette-color="quaternary"></path><path d="M9.423 79.317c0.342 0.57 0.715 1.131 1.11 1.666l0.603-0.447c-0.381-0.514-0.74-1.055-1.07-1.604L9.423 79.317z" fill="#1d4769" data-fill-palette-color="quaternary"></path><path d="M18.187 87.285c0.602 0.285 1.224 0.544 1.85 0.768l0.254-0.706c-0.604-0.216-1.203-0.465-1.782-0.739L18.187 87.285z" fill="#1d4769" data-fill-palette-color="quaternary"></path><path d="M9.157 77.232c-0.275-0.581-0.523-1.181-0.738-1.78l-0.706 0.252c0.224 0.623 0.481 1.246 0.767 1.849L9.157 77.232z" fill="#1d4769" data-fill-palette-color="quaternary"></path><path d="M16.808 85.696c-0.547-0.329-1.086-0.69-1.602-1.074l-0.448 0.602c0.535 0.398 1.095 0.773 1.663 1.115L16.808 85.696z" fill="#1d4769" data-fill-palette-color="quaternary"></path><path d="M13.213 83.95l0.505-0.555c-0.475-0.432-0.933-0.892-1.361-1.366L11.8 82.531C12.245 83.024 12.72 83.502 13.213 83.95z" fill="#1d4769" data-fill-palette-color="quaternary"></path><path d="M7.656 64.974l-0.735-0.147c-0.067 0.335-0.125 0.669-0.176 1.004l0.742 0.11C7.536 65.618 7.592 65.296 7.656 64.974z" fill="#1d4769" data-fill-palette-color="quaternary"></path><path d="M89.862 76.015l-0.75-0.016c-0.007 0.326-0.025 0.65-0.055 0.973l0.747 0.068C89.835 76.7 89.854 76.358 89.862 76.015z" fill="#1d4769" data-fill-palette-color="quaternary"></path><path d="M78.654 89.597c0.729-0.155 1.452-0.371 2.15-0.642l-0.271-0.699c-0.66 0.256-1.345 0.46-2.035 0.607L78.654 89.597z" fill="#1d4769" data-fill-palette-color="quaternary"></path><path d="M82.447 87.333l0.378 0.648c0.645-0.377 1.264-0.808 1.842-1.281l-0.476-0.58C83.644 86.569 83.058 86.978 82.447 87.333z" fill="#1d4769" data-fill-palette-color="quaternary"></path><path d="M85.725 84.647l0.561 0.498c0.497-0.56 0.953-1.162 1.354-1.788l-0.633-0.404C86.628 83.547 86.196 84.117 85.725 84.647z" fill="#1d4769" data-fill-palette-color="quaternary"></path><path d="M88.007 81.078l0.688 0.299c0.298-0.685 0.543-1.399 0.729-2.122l-0.727-0.188C88.521 79.753 88.288 80.43 88.007 81.078z" fill="#1d4769" data-fill-palette-color="quaternary"></path><path d="M75.411 89.155l-0.016 0.75c0.098 0.002 0.194 0.003 0.291 0.003 0.246 0 0.492-0.007 0.736-0.019l-0.039-0.75C76.062 89.157 75.738 89.163 75.411 89.155z" fill="#1d4769" data-fill-palette-color="quaternary"></path><rect x="88.248" y="40.377" width="0.75" height="2" fill="#1d4769" data-fill-palette-color="quaternary"></rect><rect x="88.248" y="36.377" width="0.75" height="2" fill="#1d4769" data-fill-palette-color="quaternary"></rect><rect x="88.248" y="28.377" width="0.75" height="2" fill="#1d4769" data-fill-palette-color="quaternary"></rect><rect x="88.248" y="32.377" width="0.75" height="2" fill="#1d4769" data-fill-palette-color="quaternary"></rect></svg></g></svg></g><g></g></svg></g></svg></g></svg></g></svg></g><defs></defs></svg><rect width="333.90454557049503" height="333.90454557049503" fill="none" stroke="none" visibility="hidden"></rect></g></svg></g></svg>